<?xml version="1.0" standalone="no"?>
<!DOCTYPE svg PUBLIC "-//W3C//DTD SVG 20010904//EN"
 "http://www.w3.org/TR/2001/REC-SVG-20010904/DTD/svg10.dtd">
<svg version="1.0" xmlns="http://www.w3.org/2000/svg"
 width="210.000000pt" height="281.000000pt" viewBox="0 0 210.000000 281.000000"
 preserveAspectRatio="xMidYMid meet">
<metadata>
Created by potrace 1.15, written by Peter Selinger 2001-2017
</metadata>
<g transform="translate(0.000000,281.000000) scale(0.100000,-0.100000)"
stroke="none">
<path d="M940 2599 c-55 -47 -73 -51 -131 -29 -67 27 -83 25 -111 -10 -12 -16
-34 -44 -47 -61 -23 -30 -27 -31 -79 -26 -73 8 -100 -6 -112 -57 -20 -82 -35
-98 -107 -116 -64 -16 -76 -33 -70 -99 7 -66 0 -81 -58 -121 -64 -44 -70 -60
-45 -116 27 -62 25 -87 -9 -126 -60 -70 -60 -84 1 -158 34 -42 35 -59 6 -128
l-23 -54 40 -34 c100 -84 95 -76 89 -142 -6 -51 -4 -62 13 -79 11 -11 38 -23
59 -27 62 -12 79 -29 98 -95 21 -74 38 -86 112 -76 51 6 56 5 82 -23 15 -17
37 -44 50 -61 27 -36 48 -38 117 -12 56 21 66 19 123 -31 43 -37 76 -36 126 5
55 46 63 47 121 26 77 -29 90 -26 131 31 46 64 61 72 127 64 64 -8 81 5 97 69
18 72 34 87 117 107 49 12 58 29 58 114 l0 60 58 44 c64 49 67 60 38 137 -21
58 -19 66 26 119 42 50 42 78 0 130 -46 55 -47 63 -26 121 28 75 25 91 -23
124 -80 55 -81 57 -75 121 8 74 -7 95 -83 115 -62 16 -76 30 -85 88 -4 22 -18
51 -31 64 -21 21 -29 23 -77 17 -66 -8 -79 -1 -120 62 -38 58 -59 64 -127 35
-27 -12 -53 -21 -58 -21 -6 0 -34 18 -63 40 -30 22 -63 40 -74 40 -11 0 -36
-14 -55 -31z m270 -159 c243 -81 419 -267 481 -507 37 -147 19 -340 -45 -477
-88 -188 -278 -343 -481 -391 -81 -20 -252 -19 -334 1 -322 78 -544 362 -544
694 0 338 227 620 558 696 89 20 281 12 365 -16z"/>
<path d="M880 2375 c-158 -30 -318 -139 -410 -280 -174 -267 -110 -640 143
-831 258 -195 600 -172 827 56 129 129 183 260 183 445 -1 121 -11 160 -44
170 -19 6 -61 -32 -298 -269 -254 -254 -279 -276 -310 -276 -32 0 -52 17 -217
182 -101 99 -188 194 -195 210 -23 55 34 121 90 103 11 -3 88 -74 171 -158
l151 -151 217 218 c119 120 241 245 271 277 l53 59 -70 69 c-152 149 -359 215
-562 176z"/>
<path d="M361 957 c-18 -83 -37 -168 -42 -187 -43 -172 -100 -465 -95 -484 3
-14 14 -27 24 -30 10 -4 69 16 136 44 65 27 127 50 139 50 12 0 58 -40 123
-107 142 -148 134 -156 213 207 6 25 26 118 46 207 19 89 35 169 35 178 0 8
-18 27 -40 41 -43 29 -49 29 -136 -7 -44 -18 -79 -5 -105 38 -46 78 -54 83
-140 83 -77 0 -79 1 -94 30 -8 16 -15 37 -15 47 0 10 -4 24 -8 30 -5 8 -22
-51 -41 -140z"/>
<path d="M1590 1081 c0 -36 -22 -80 -43 -87 -12 -5 -46 -7 -75 -5 -71 3 -87
-4 -113 -47 -53 -88 -70 -95 -158 -61 -60 22 -92 17 -129 -24 -19 -22 -19 -23
55 -357 41 -184 79 -338 86 -342 32 -20 56 -5 141 87 48 52 99 98 113 101 17
5 60 -8 145 -45 115 -49 122 -51 145 -35 29 18 29 21 -22 244 -18 80 -54 245
-81 368 -26 122 -51 222 -56 222 -4 0 -8 -8 -8 -19z"/>
</g>
</svg>
