<?xml version="1.0" standalone="no"?><!DOCTYPE svg PUBLIC "-//W3C//DTD SVG 1.1//EN" "http://www.w3.org/Graphics/SVG/1.1/DTD/svg11.dtd"><svg t="1587321206310" class="icon" viewBox="0 0 1024 1024" version="1.1" xmlns="http://www.w3.org/2000/svg" p-id="2139" xmlns:xlink="http://www.w3.org/1999/xlink" width="200" height="200"><defs><style type="text/css"></style></defs><path d="M846.506667 143.36 670.72 143.36 670.72 35.84c0-11.946667-6.826667-18.773333-18.773333-18.773333l-307.2 0C331.093333 17.066667 324.266667 23.893333 324.266667 35.84l0 107.52L150.186667 143.36c-10.24 0-17.066667 8.533333-17.066667 17.066667l0 64.853333c0 10.24 8.533333 17.066667 17.066667 17.066667l696.32 0c10.24 0 17.066667-8.533333 17.066667-17.066667L863.573333 162.133333C865.28 151.893333 856.746667 143.36 846.506667 143.36z" p-id="2140"></path><path d="M810.666667 295.253333 186.026667 295.253333c-10.24 0-17.066667 8.533333-17.066667 17.066667l0 674.133333c0 10.24 8.533333 17.066667 17.066667 17.066667l624.64 0c10.24 0 17.066667-8.533333 17.066667-17.066667L827.733333 312.32C829.44 302.08 820.906667 295.253333 810.666667 295.253333zM373.76 844.8c0 10.24-8.533333 17.066667-17.066667 17.066667l-27.306667 0c-10.24 0-17.066667-8.533333-17.066667-17.066667L312.32 455.68c0-10.24 8.533333-17.066667 17.066667-17.066667l27.306667 0c10.24 0 17.066667 8.533333 17.066667 17.066667L373.76 844.8zM529.066667 844.8c0 10.24-8.533333 17.066667-17.066667 17.066667l-27.306667 0c-10.24 0-17.066667-8.533333-17.066667-17.066667L467.626667 455.68c0-10.24 8.533333-17.066667 17.066667-17.066667L512 438.613333c10.24 0 17.066667 8.533333 17.066667 17.066667L529.066667 844.8zM686.08 844.8c0 10.24-8.533333 17.066667-17.066667 17.066667l-27.306667 0c-10.24 0-17.066667-8.533333-17.066667-17.066667L624.64 455.68c0-10.24 8.533333-17.066667 17.066667-17.066667l27.306667 0c10.24 0 17.066667 8.533333 17.066667 17.066667L686.08 844.8z" p-id="2141"></path></svg>