<?xml version="1.0" standalone="no"?><!DOCTYPE svg PUBLIC "-//W3C//DTD SVG 1.1//EN" "http://www.w3.org/Graphics/SVG/1.1/DTD/svg11.dtd"><svg t="1586659486769" class="icon" viewBox="0 0 1024 1024" version="1.1" xmlns="http://www.w3.org/2000/svg" p-id="1824" xmlns:xlink="http://www.w3.org/1999/xlink" width="200" height="200"><defs><style type="text/css"></style></defs><path d="M744.992 896c86.304-18.752 151.008-100 151.008-192 0-58.432-26.624-110.112-67.872-145.376 2.368-15.264 3.872-30.752 3.872-46.624 0-104.832-49.888-197.888-128-256l64-64 0-64 64-64-64-64-64 64-64 0-256 256-128 64 0 128 64 64 128 0 64-128 96-96c55.488 33.408 96 90.432 96 160-106.048 0-192 85.952-192 192l-384 0 0 64 192 0c19.136 14.24 42.048 22.112 64 32l0 96-128 0-128 128 768 0-128-128-23.008 0zM640 704c0-35.36 28.64-64 64-64s64 28.64 64 64c0 35.328-28.64 64-64 64s-64-28.672-64-64z" p-id="1825"></path></svg>