<?xml version="1.0" standalone="no"?>
<!DOCTYPE svg PUBLIC "-//W3C//DTD SVG 20010904//EN"
 "http://www.w3.org/TR/2001/REC-SVG-20010904/DTD/svg10.dtd">
<svg version="1.0" xmlns="http://www.w3.org/2000/svg"
 width="256.000000pt" height="256.000000pt" viewBox="0 0 256.000000 256.000000"
 preserveAspectRatio="xMidYMid meet">

<g transform="translate(0.000000,256.000000) scale(0.100000,-0.100000)"
 stroke="none">
<path d="M470 2538 c-72 -28 -175 -130 -216 -213 l-29 -60 0 -985 0 -985 29
-60 c42 -86 144 -186 219 -213 57 -22 64 -22 807 -22 743 0 750 0 807 22 75
27 177 127 219 213 l29 60 3 790 3 790 -35 70 c-31 62 -64 99 -288 321 -152
150 -269 258 -293 270 -38 18 -69 19 -620 21 -569 2 -581 2 -635 -19z m1120
-318 c0 -159 17 -216 88 -288 77 -78 102 -87 285 -90 l157 -3 -2 -758 -3 -758
-29 -37 c-60 -79 -24 -76 -806 -76 -782 0 -746 -3 -806 76 l-29 37 0 957 0
957 29 37 c58 77 48 76 614 76 l502 0 0 -130z"/>
<path d="M677 1800 c-68 -59 -71 -114 -12 -178 l33 -37 343 -3 c248 -2 351 1
372 9 36 15 77 75 77 112 0 40 -26 85 -63 107 -30 19 -52 20 -374 20 l-342 0
-34 -30z"/>
<path d="M677 1290 c-68 -59 -71 -114 -12 -178 l33 -37 582 0 582 0 33 37 c59
64 56 119 -12 178 l-34 30 -569 0 -569 0 -34 -30z"/>
<path d="M677 780 c-68 -59 -71 -114 -12 -178 l33 -37 582 0 582 0 33 37 c59
64 56 119 -12 178 l-34 30 -569 0 -569 0 -34 -30z"/>
</g>
</svg>
