<?xml version="1.0" standalone="no"?><!DOCTYPE svg PUBLIC "-//W3C//DTD SVG 1.1//EN" "http://www.w3.org/Graphics/SVG/1.1/DTD/svg11.dtd"><svg t="1586659671017" class="icon" viewBox="0 0 1024 1024" version="1.1" xmlns="http://www.w3.org/2000/svg" p-id="3996" xmlns:xlink="http://www.w3.org/1999/xlink" width="200" height="200"><defs><style type="text/css"></style></defs><path d="M585.344 566.656L480 461.248l-189.376 189.376a32 32 0 0 1-45.248-45.248l211.968-212.032a31.872 31.872 0 0 1 45.312 0L608 498.752 850.752 256H800a32 32 0 1 1 0-64h128a32.128 32.128 0 0 1 12.032 2.368A32.192 32.192 0 0 1 960 224v128a32 32 0 1 1-64 0v-50.752L630.656 566.656a31.872 31.872 0 0 1-45.312 0zM128 832h800a32 32 0 1 1 0 64h-832a32 32 0 0 1-32-32v-640a32 32 0 0 1 64 0V832z" p-id="3997"></path></svg>