<?xml version="1.0" standalone="no"?>
<!DOCTYPE svg PUBLIC "-//W3C//DTD SVG 20010904//EN"
 "http://www.w3.org/TR/2001/REC-SVG-20010904/DTD/svg10.dtd">
<svg version="1.0" xmlns="http://www.w3.org/2000/svg"
 width="174.000000pt" height="253.000000pt" viewBox="0 0 174.000000 253.000000"
 preserveAspectRatio="xMidYMid meet">
<metadata>
Created by potrace 1.15, written by Peter Selinger 2001-2017
</metadata>
<g transform="translate(0.000000,253.000000) scale(0.100000,-0.100000)" stroke="none">
<path d="M267 2443 c-4 -3 -7 -12 -7 -20 0 -11 112 -13 630 -13 398 0 630 4
630 10 0 27 -56 30 -643 30 -332 0 -607 -3 -610 -7z"/>
<path d="M234 2347 c-2 -7 -3 -56 -2 -108 l3 -94 82 -3 c100 -3 101 -2 93 123
l-5 90 -83 3 c-62 2 -84 0 -88 -11z"/>
<path d="M702 2348 c-16 -16 -16 -180 0 -196 17 -17 819 -17 836 0 7 7 12 44
12 98 0 54 -5 91 -12 98 -17 17 -819 17 -836 0z"/>
<path d="M257 2083 c-19 -18 -6 -24 97 -47 l28 -7 -4 -117 c-5 -140 -16 -172
-108 -342 -104 -189 -100 -160 -100 -784 0 -576 0 -576 51 -623 13 -11 42 -26
64 -31 57 -15 1126 -15 1187 -1 34 8 57 21 78 46 l31 34 -3 598 -3 598 -82
164 c-45 90 -87 189 -93 219 -6 30 -10 98 -8 150 3 93 4 95 28 98 48 6 90 24
90 38 0 12 -91 14 -623 14 -343 0 -627 -3 -630 -7z m1060 -55 c6 -7 13 -65 16
-128 7 -142 21 -188 107 -359 37 -75 72 -152 76 -171 5 -19 8 -286 6 -592 l-2
-558 -640 0 -640 0 -2 548 c-1 301 -1 560 0 576 2 28 40 110 122 266 56 108
70 161 77 290 3 63 10 121 16 128 7 9 106 12 432 12 326 0 425 -3 432 -12z"/>
<path d="M780 1335 c-54 -17 -70 -37 -70 -84 0 -59 12 -69 56 -47 51 24 123
31 168 16 49 -16 76 -60 76 -122 0 -84 -29 -118 -115 -133 -62 -12 -65 -18
-65 -115 0 -120 0 -120 71 -120 55 0 60 2 69 26 6 14 10 45 10 69 0 41 2 44
38 55 62 21 101 50 130 98 23 41 27 58 27 127 0 113 -35 174 -125 221 -47 24
-207 30 -270 9z"/>
<path d="M834 635 c-18 -28 -16 -117 4 -137 19 -19 99 -22 126 -5 28 19 41 63
31 107 -10 47 -30 60 -90 60 -47 0 -57 -3 -71 -25z"/>
</g>
</svg>
