<?xml version="1.0" standalone="no"?>
<!DOCTYPE svg PUBLIC "-//W3C//DTD SVG 20010904//EN"
 "http://www.w3.org/TR/2001/REC-SVG-20010904/DTD/svg10.dtd">
<svg version="1.0" xmlns="http://www.w3.org/2000/svg"
 width="189.000000pt" height="205.000000pt" viewBox="0 0 189.000000 205.000000"
 preserveAspectRatio="xMidYMid meet">
<metadata>
Created by potrace 1.15, written by Peter Selinger 2001-2017
</metadata>
<g transform="translate(0.000000,205.000000) scale(0.100000,-0.100000)"
 stroke="none">
<path d="M267 1913 c-4 -3 -7 -10 -7 -15 0 -4 182 -8 405 -8 368 0 440 4 389
24 -21 8 -779 8 -787 -1z"/>
<path d="M248 1848 c-3 -11 -3 -52 1 -110 1 -15 11 -18 55 -18 30 0 56 4 58
10 2 5 1 37 0 70 l-4 60 -53 0 c-33 0 -54 -5 -57 -12z"/>
<path d="M544 1846 c-3 -7 -4 -38 -2 -67 l3 -54 270 0 270 0 0 65 0 65 -268 3
c-221 2 -268 0 -273 -12z"/>
<path d="M262 1678 c3 -7 20 -15 39 -18 l34 -5 0 -90 -1 -90 -59 -114 -60
-114 -3 -538 -3 -537 25 -29 24 -28 407 0 407 0 24 28 c13 15 24 35 24 43 0
23 -30 16 -52 -11 l-19 -25 -383 0 c-361 0 -384 1 -400 19 -15 17 -16 62 -14
547 l3 529 59 111 c57 108 60 115 64 200 3 49 9 92 15 96 6 4 156 7 334 7 178
0 328 3 333 6 35 21 -21 25 -396 25 -320 0 -405 -3 -402 -12z"/>
<path d="M473 1546 c3 -8 95 -144 205 -303 109 -158 204 -297 209 -308 9 -17
-23 -66 -213 -335 -123 -173 -224 -318 -224 -322 0 -5 80 -8 178 -8 l177 0
129 210 c71 116 133 210 137 210 4 0 62 -94 130 -210 l124 -210 188 0 c148 0
187 3 181 13 -13 21 -152 224 -289 422 -73 105 -137 200 -143 211 -10 19 -7
28 21 65 96 127 387 561 382 569 -4 6 -79 10 -175 10 l-170 0 -23 -37 c-13
-21 -66 -113 -117 -206 -51 -92 -96 -169 -100 -172 -4 -2 -44 64 -90 148 -46
84 -98 177 -115 207 l-31 55 -188 3 c-160 2 -187 0 -183 -12z"/>
</g>
</svg>
